<svg id="tik" xmlns="http://www.w3.org/2000/svg" width="14.998" height="14.998" viewBox="0 0 14.998 14.998">
  <g id="Group_68" data-name="Group 68" transform="translate(1 1)">
    <path id="Path_67" data-name="Path 67" d="M1.52,0A1.545,1.545,0,0,1,3.054,1.534l.058,12.217a1.51,1.51,0,0,1-1.52,1.52A1.545,1.545,0,0,1,.058,13.736L0,1.52A1.51,1.51,0,0,1,1.52,0Z" transform="translate(10.798 0) rotate(45)" fill="#006d4a"/>
    <path id="Path_68" data-name="Path 68" d="M1.592,0a1.51,1.51,0,0,1,1.52,1.52L3.054,13.736A1.545,1.545,0,0,1,1.52,15.271,1.51,1.51,0,0,1,0,13.751L.058,1.534A1.545,1.545,0,0,1,1.592,0Z" transform="translate(12.998 10.798) rotate(135)" fill="#006d4a"/>
  </g>
</svg>
